<?xml version="1.0" encoding="utf-8"?>
<!-- Generator: Adobe Illustrator 27.0.0, SVG Export Plug-In . SVG Version: 6.00 Build 0)  -->
<svg version="1.1" id="a" xmlns="http://www.w3.org/2000/svg" xmlns:xlink="http://www.w3.org/1999/xlink" x="0px" y="0px"
	 viewBox="0 0 100 100" style="enable-background:new 0 0 100 100;" xml:space="preserve">
<style type="text/css">
	.st0{fill:#414143;}
	.st1{fill:#424243;}
</style>
<path class="st0" d="M62.6,44.2c-8.1-0.4-16.5-1.3-24.3,0.1c-4.5,0.8-6.4-0.5-9-2.8c-1.7-1.5-3.7-3-5.6-1c-2.2,2.4-0.3,4.2,1.6,5.8
	c7.7,6.6,15.4,13.2,23.1,19.8c1.3,1.1,2.7,2,4.5,1.8c1.6,0,3-0.6,4-1.8c3.7-4.3,7.5-8.5,10.8-13.1C70.2,49.2,67.6,44.4,62.6,44.2z
	 M54.7,50.7c-5.9,8.1-7.5,7.9-15.4-1.3h15.4C54.8,50.1,54.8,50.5,54.7,50.7z"/>
<path class="st1" d="M70.8,45.3c-3.8,0-6.7-2.9-6.7-6.6c0-3.7,2.9-6.6,6.6-6.7c3.7,0,6.6,2.8,6.6,6.6C77.4,42.5,74.6,45.3,70.8,45.3
	z"/>
</svg>
