<?xml version="1.0" encoding="utf-8"?>
<!-- Generator: Adobe Illustrator 27.0.0, SVG Export Plug-In . SVG Version: 6.00 Build 0)  -->
<svg version="1.1" id="a" xmlns="http://www.w3.org/2000/svg" xmlns:xlink="http://www.w3.org/1999/xlink" x="0px" y="0px"
	 viewBox="0 0 100 100" style="enable-background:new 0 0 100 100;" xml:space="preserve">
<style type="text/css">
	.st0{fill:#414143;}
	.st1{fill:#424244;}
</style>
<path class="st0" d="M71.2,47.6c-3.1-3.5-5.8-7.3-8.7-10.9c-3.5-4.3-4.1-4.2-7.1,0.6c-0.7,1.1-1.9,1.8-3,2.5
	c-4.6,3.2-9.4,6.3-14,9.5c-4.7,3.3-5.1,6.9-1.2,11.1c4.1,4.4,9.4,6.1,16.1,5.8h0c4,1,7.6-1,10.7-4.5c2-2.2,4.1-4.3,6.5-6.2
	C73.5,53,73.9,50.7,71.2,47.6z M64.8,52c-1.5,1.4-2.4,4.2-5.5,3.2c-1.5-0.5-3.3-0.3-4.9-0.5c0,0.1,0,0.1,0,0.2h-2
	c-2.7,0-6-0.2-6.8-2.9c-0.6-2,2.8-2.6,4.3-4c0.9-0.8,1.9-1.3,2.9-2C58.9,42,58.9,42,63.4,48C64.2,49.1,66.8,50.3,64.8,52z"/>
<path class="st1" d="M40.6,42.4c0.1,3.6-2.8,6.7-6.5,6.8c-4,0.2-7.1-2.8-7.1-6.7c0-3.7,3-6.6,6.7-6.6C37.3,35.9,40.5,38.9,40.6,42.4
	L40.6,42.4z"/>
</svg>
