<?xml version="1.0" encoding="UTF-8"?><svg id="a" xmlns="http://www.w3.org/2000/svg" viewBox="0 0 100 100"><defs><style>.b{fill:#414143;}</style></defs><path class="b" d="M51.02,55.05c-1.55-2.89-3.49-4.08-5.61-4.19-3.26-.18-5.4-1.24-7.33-4.11-1.75-2.61-5.25-1.17-7.85-.94-2.29,.21-1.05,2.71-1.18,4.17-.2,2.31-.04,4.65-.07,6.98-.03,2.1-.95,3.59-3.2,3.63-2.09,.04-2.91-1.43-2.94-3.28-.07-4.82-.06-9.64-.04-14.46,.01-2.58,1.59-3.42,3.92-3.41,6.65,.05,13.32-.19,19.94,.21,7.07,.43,13.6,6.04,15.34,12.44,1.44,5.3-.87,8.46-6.31,8.48-6.98,.03-13.97-.05-20.95-.04-2.16,0-4.34-.27-4.27-2.92,.06-2.32,2.14-2.58,4.09-2.57,5.29,.02,10.58,0,16.45,0Z"/><path class="b" d="M77.21,53.87c.02,3.72-2.9,6.71-6.55,6.73-3.66,.02-6.58-2.93-6.6-6.65-.02-3.85,2.71-6.63,6.52-6.65,3.77-.02,6.61,2.8,6.63,6.58Z"/></svg>