<?xml version="1.0" encoding="UTF-8"?><svg id="a" xmlns="http://www.w3.org/2000/svg" viewBox="0 0 100 100"><defs><style>.b{fill:#414143;}</style></defs><path class="b" d="M52.96,60.02c-2.13-6.67-12.37-9.84-6.37-18.88-4.72-.95-7.72-3.03-7.38-8.39,.18-2.82-2.67-4.4-4.14-6.55-1.24-1.8-3.13-3.57-.72-5.54,2.29-1.87,3.64,.32,4.78,1.86,2.08,2.8,4.05,4.94,8.18,5.16,3.99,.21,6.13,3.77,4.93,7.66-.81,2.63,.09,4.03,1.44,5.73,3.71,4.69,7.34,9.45,11.11,14.1,1.84,2.26,2.72,4.68,1.42,7.36-1.2,2.48-3.49,3.42-6.22,3.29-.17,0-.33,.01-.5,.02q-7.89,.56-5.42,8.06c.73,2.23,1.82,4.82-1.32,5.89-3.12,1.06-3.87-1.6-4.66-3.84-1.06-2.97-2.19-5.91-3.21-8.9-1.65-4.83-1.09-5.68,4.05-6.43,1.3-.19,2.61-.4,4.04-.62Z"/></svg>