<?xml version="1.0" encoding="UTF-8"?><svg id="a" xmlns="http://www.w3.org/2000/svg" viewBox="0 0 100 100"><defs><style>.b{fill:#414143;}</style></defs><path class="b" d="M82.87,63.7c.04,1.97-1.25,2.88-3.02,3.04-3.08-.09-6.16-.06-9.25,0-7.14-.01-14.27-.02-21.4-.23-.02,.01-.04,.01-.05,0-2.06-.19-4.11-.46-6.15-.83-1.32-.24-2.58-.6-3.76-1.07-.09-.04-.19-.08-.28-.13-.7-.31-1.4-.67-2.11-1.07-.05-.02-.11-.05-.16-.09-.78-.44-1.56-.93-2.35-1.48,.05,4.4-2.26,5.22-5.59,4.99-2.81-.19-5.65-.08-8.47-.06-1.74,.02-3.02-.62-3.14-2.44-.15-2.22,1.42-2.75,3.27-2.78,1.33-.02,2.66,0,3.99-.02,4.97-.03,6.25-1.28,5.22-6.16-.2-.92-.3-1.79-.29-2.6,0-.11,0-.23,.01-.34,.01-.12,.02-.24,.03-.35,.03-.25,.07-.49,.13-.72,.02-.11,.05-.21,.09-.32,.04-.14,.09-.27,.15-.4,.87-1.96,3.05-3.19,6.31-3.25,1.61,.34,2.92,1.57,3.94,3.5,1.55,2.96,4.44,3.66,7.5,4.19,.43,.07,.89,.1,1.37,.11,.39,.06,.77,.12,1.15,.21,.82,.19,1.86,.1,2.66,.34,.45,.13,.81,.36,1.03,.79,.68,1.34,1.48,2.27,2.38,2.9,.06,.05,.13,.09,.2,.13,.9,.59,1.88,.9,2.92,1.04,.34,.06,.68,.09,1.03,.11,.14,0,.26,.01,.39,.01,.53,.02,1.07,.02,1.62-.01,1.3-.03,2.63-.13,3.92-.09,3.71,.1,7.42,.09,11.13,.04h2.34c.06,0,.12,0,.18,.01,1.82,.16,3.02,1.11,3.06,3.03Z"/><path class="b" d="M36.05,47.39c-3.26,.06-5.44,1.29-6.31,3.25,.45-1.17,1.36-2.11,2.87-2.77,1.27-.55,2.41-.7,3.44-.48Z"/><path class="b" d="M49.15,66.51c-.63-.01-1.27-.03-1.9-.05-2.68-.09-5.32-.68-8.01-1.85,1.18,.47,2.44,.83,3.76,1.07,2.04,.37,4.09,.64,6.15,.83Z"/><path class="b" d="M59.2,60.6c-1.04-.14-2.02-.45-2.92-1.04,.91,.57,1.9,.88,2.92,1.04Z"/><path class="b" d="M79.58,60.66h-2.29c.61,0,1.23-.01,1.84-.02,.16,0,.31,.01,.45,.02Z"/><path class="b" d="M79.85,66.74c-.22,.02-.45,.03-.69,.03-2.85-.02-5.71-.02-8.56-.03,3.09-.06,6.17-.09,9.25,0Z"/><path class="b" d="M36.35,39.72c.05,3.67-2.9,6.8-6.48,6.85-3.57,.05-6.66-3.02-6.71-6.66-.05-3.72,2.83-6.72,6.53-6.77,3.72-.05,6.61,2.81,6.67,6.59Z"/></svg>