<?xml version="1.0" encoding="UTF-8"?><svg id="a" xmlns="http://www.w3.org/2000/svg" viewBox="0 0 100 100"><defs><style>.b{fill:#414143;}</style></defs><path class="b" d="M67.73,51.34c.05,3.32,.09,6.64,.17,9.96,.04,1.98-.23,3.89-2.7,3.9-2.58,.02-2.59-2.09-2.66-3.95-.13-3.49-.19-6.97-.33-10.46-.18-4.59-3.06-6.72-7.43-5.15-2.14,.77-4.07,2.2-5.98,3.51-1.43,.98-3.09,2.18-4.55,1.43-3.88-2.01-5.71,.73-7.98,2.81-4.05,3.69-8.16,7.31-12.24,10.98-1.59,1.43-3.38,2.6-5.23,.76-2.08-2.08-.77-3.9,.99-5.47,7.45-6.61,14.79-13.37,22.41-19.78,4.94-4.16,10.64-6.73,17.44-5.73,5.85,.86,7.78,2.89,7.9,8.73,.06,2.82,.09,5.65,.14,8.47h.06Z"/><path class="b" d="M75.61,38.37c3.69,0,6.64,2.9,6.68,6.56,.04,3.64-2.86,6.62-6.54,6.72-3.9,.11-7.01-2.95-6.92-6.82,.08-3.66,3.03-6.47,6.78-6.46Z"/></svg>