<?xml version="1.0" encoding="UTF-8"?><svg id="a" xmlns="http://www.w3.org/2000/svg" viewBox="0 0 100 100"><defs><style>.b{fill:#444446;}</style></defs><path class="b" d="M39.05,52.7c3,4.11,4.03,7.59,1,10.75-2.99,3.11-6.5,3.11-9.72,.13-1.26-1.17-1.97-.5-2.85,.36-.83,.81-1.75,1.54-2.61,2.32-1.47,1.34-3.16,2.35-4.75,.53-1.58-1.81-.35-3.31,1.15-4.64,8.7-7.74,17.35-15.55,26.06-23.28q10.48-9.31,18.43,2.49c4.45,6.63,8.87,13.28,13.29,19.92,1.34,2.01,2.77,4.22-.07,5.98-2.56,1.6-3.93-.51-5.16-2.34-3.99-5.94-8.05-11.83-11.86-17.87-1.66-2.63-2.91-3.7-5.39-.84-1.73,1.99-3.94,3.56-5.95,5.32-4.59,4.02-4.96,4.08-11.57,1.18Z"/></svg>