<?xml version="1.0" encoding="UTF-8"?><svg id="a" xmlns="http://www.w3.org/2000/svg" viewBox="0 0 100 100"><defs><style>.b{fill:#414143;}.c{fill:#424244;}</style></defs><path class="b" d="M58.3,69.63c-5.86-.69-13.03,1.52-19.59-2.12-1.31-.73-2.85-1.2-3.89-2.21-3.13-3.04-5.24-3.3-6.46,1.58-.47,1.87-1.85,3.47-4.08,2.48-2.23-.99-1.7-2.82-.87-4.67,2.08-4.65,4.8-9.11,3.59-14.64-.26-1.17,.35-2.64,.84-3.86,1.35-3.29,3.7-5.27,7.4-4.17,3.6,1.07,5.1,3.84,4.01,7.39-.83,2.7-.25,4.5,2,5.97,3.48,2.28,8.45,2.63,9.85,7.71,.11,.38,2.15,.31,3.29,.32,6.16,.03,12.33,.05,18.49-.01,2.24-.02,4.28,.51,4.41,2.95,.15,2.89-2.09,3.32-4.49,3.29-4.5-.06-8.99-.02-14.51-.02Z"/><path class="c" d="M49.78,36.83c.1,3.75-2.63,6.68-6.36,6.84-3.77,.15-6.72-2.5-6.94-6.23-.23-3.97,2.65-7.08,6.57-7.11,3.69-.02,6.63,2.81,6.72,6.51Z"/></svg>