<?xml version="1.0" encoding="UTF-8"?><svg id="a" xmlns="http://www.w3.org/2000/svg" viewBox="0 0 100 100"><defs><style>.b{fill:#434345;}.c{fill:#414143;}</style></defs><path class="c" d="M29.25,48.53c0-7.32,.01-14.64,0-21.97,0-2.11,.04-4.31,2.87-4.23,2.56,.08,2.47,2.22,2.48,4.09,0,3.66,.22,7.34-.05,10.98-.27,3.62,1.21,4.45,4.59,4.41,13.14-.17,26.29-.07,39.44-.06,1.16,0,2.33-.04,3.49,.03,2.08,.12,3.66,1.13,3.6,3.31-.07,2.18-1.72,3.1-3.8,3.11-6.99,.02-13.98,.16-20.97-.05-3.23-.1-4.34,.86-4.22,4.16,.23,6.81,.08,13.64,.06,20.47,0,2.4,0,5.06-3.41,4.87-2.97-.16-2.96-2.61-2.96-4.85,0-4.66-.09-9.32,.04-13.98,.06-2.25-.51-3.13-3.02-3.27-12.82-.72-12.72-.8-12.94,12.14-.04,2.63,1.8,7.33-2.42,7.37-4.79,.04-2.57-4.86-2.71-7.57-.33-6.31-.1-12.64-.1-18.96,.01,0,.03,0,.04,0Z"/><path class="b" d="M21.2,42.05c3.7,.04,6.61,2.95,6.67,6.66,.06,3.63-2.88,6.66-6.56,6.75-3.82,.1-7.07-3.11-6.97-6.89,.1-3.57,3.24-6.56,6.85-6.52Z"/></svg>