<?xml version="1.0" encoding="utf-8"?>
<!-- Generator: Adobe Illustrator 27.0.0, SVG Export Plug-In . SVG Version: 6.00 Build 0)  -->
<svg version="1.1" id="a" xmlns="http://www.w3.org/2000/svg" xmlns:xlink="http://www.w3.org/1999/xlink" x="0px" y="0px"
	 viewBox="0 0 100 100" style="enable-background:new 0 0 100 100;" xml:space="preserve">
<style type="text/css">
	.st0{fill:#414143;}
	.st1{fill:#444446;}
</style>
<path class="st0" d="M78.5,40.4c-6.1,6.3-6.4,14.2-6,22.3c0.2,4.7,0,9.3,0.1,14c0,2.2-0.5,4.2-3,4.4c-2.9,0.1-3.3-2.1-3.3-4.5
	c0-5.3-0.1-10.7,0.1-16c0.1-2.6-0.4-3.8-3.4-4c-6.5-0.5-12.2-3-17.1-7.3c-3.9-3.4-8.6-0.7-12.2-1.7l0,0c-3.8,0-7,0-10.2,0
	c-2,0-3.3-0.8-3.2-2.9c0.1-1.8,1.5-2.4,3.2-2.4c4.8,0,9.7-0.2,14.5,0c4.5,0.2,8.1-1.2,11.4-4.1c1.1-0.9,2.2-1.9,3.3-2.8
	c1.6-0.4,2.2,1.7,3.5,2.1c3.1,1,6.1,2.9,9.1-1.3c3.1-4.4,2.8-8.1,0.1-12.3c-0.2-0.3-0.4-0.6-0.6-0.9c0-0.3-0.1-0.7-0.2-1.1
	c-0.4-1.3,0.8-2.5,2.2-2.9c1.5-0.5,2.7,0.2,3.4,1.4c3.1,5.1,6.2,10.2,9.3,15.4C80.2,37.5,79.7,39.2,78.5,40.4z"/>
<path class="st1" d="M45.3,25.3C45.2,28.8,42,32,38.5,32c-3.8,0-7-3.5-6.7-7.2c0.2-3.6,3.5-6.6,7-6.4C42.2,18.5,45.4,21.8,45.3,25.3
	L45.3,25.3z"/>
</svg>
