<?xml version="1.0" encoding="UTF-8"?><svg id="a" xmlns="http://www.w3.org/2000/svg" viewBox="0 0 100 100"><defs><style>.b{fill:#434345;}.c{fill:#414142;}</style></defs><path class="c" d="M30.28,55.73c0-3.82-.13-7.65,.03-11.47,.21-5.06,3.91-7.61,8.56-5.66,5.19,2.18,10.19,4.82,15.26,7.29,1.38,.67,2.98,1.68,2.92,3.16-.19,4.83,3.41,5.81,6.69,7.33,4.82,2.23,9.58,4.58,14.36,6.9,2.34,1.13,5.7,1.99,3.94,5.53-1.61,3.24-4.31,1.24-6.47,.21-11.99-5.71-23.99-11.39-35.89-17.27-3.09-1.53-4.31-1.51-4.09,2.42,.24,4.14,0,8.31-.05,12.47-.03,1.93-.24,3.88-2.86,3.68-2.16-.16-2.5-1.8-2.48-3.62,.04-3.66,.01-7.32,.01-10.97h.06Z"/><path class="b" d="M31.03,36.24c-.02,3.56-3.14,6.65-6.73,6.68-3.62,.03-6.73-2.96-6.84-6.56-.11-3.77,3.18-7.05,6.97-6.94,3.57,.1,6.62,3.25,6.6,6.83Z"/></svg>