<?xml version="1.0" encoding="UTF-8"?><svg id="a" xmlns="http://www.w3.org/2000/svg" viewBox="0 0 100 100"><defs><style>.b{fill:#414143;}</style></defs><path class="b" d="M49.06,43.27c0,5.77,.07,10.41-.02,15.05-.09,5.06-1.97,7.03-6.86,7.08-6.81,.07-13.63-.06-20.44-.02-2.02,.01-3.97-.29-3.96-2.64,0-2.38,2.01-2.63,4-2.6,3.99,.05,7.99-.17,11.96,.02,2.92,.14,3.73-1.03,3.64-3.78-.17-4.81-.06-9.63-.01-14.44,.06-5.65,3.71-8.48,9.21-6.94,1.87,.52,3.72,1.47,5.32,2.59,9.12,6.36,18.18,12.82,27.24,19.27,1.88,1.34,4.37,2.74,2.32,5.49-1.95,2.64-4.12,.95-6.04-.4-8.51-6.01-17-12.04-26.36-18.67Z"/><path class="b" d="M63.73,58.73c.03,3.75-2.77,6.6-6.51,6.66-3.75,.06-6.71-2.69-6.85-6.36-.15-3.88,2.86-6.95,6.79-6.92,3.71,.03,6.55,2.89,6.58,6.62Z"/></svg>