<?xml version="1.0" encoding="UTF-8"?><svg id="a" xmlns="http://www.w3.org/2000/svg" viewBox="0 0 100 100"><defs><style>.b{fill:#424244;}.c{fill:#48484a;}</style></defs><path class="c" d="M48.96,46.03c-1.27-5.63-2.51-10.97-3.67-16.32-.47-2.18-.82-4.59,2.09-5.27,2.93-.69,3.67,1.57,4.15,3.79,1.89,8.61,3.95,17.19,5.51,25.86,.45,2.5,1.48,3.71,3.51,4.76,6.35,3.29,12.64,6.7,18.94,10.08,1.92,1.03,4.26,2.15,2.97,4.85-1.39,2.91-3.72,1.96-5.94,.76-11.85-6.36-23.47-13.17-36.89-16.06-3.61-.78-5.08-.17-5.8,3.43-.75,3.74-1.99,7.38-3.11,11.04-.53,1.74-1.62,3.11-3.66,2.4-1.94-.67-2.09-2.23-1.56-4.09,4.23-14.7,8.41-29.41,12.6-44.12,.5-1.76,1.41-3.21,3.49-2.71,2.42,.59,2.31,2.38,1.72,4.35-1.05,3.5-1.75,7.14-3.07,10.53-1.46,3.72-.49,5.66,3.41,6.06,1.62,.17,3.04,1.41,5.31,.66Z"/><path class="b" d="M30.75,47.06c-.06,3.65-3.03,6.53-6.76,6.54-3.89,.01-7.02-3.2-6.81-7,.2-3.64,3.29-6.41,7.01-6.3,3.69,.11,6.62,3.13,6.57,6.76Z"/></svg>