<?xml version="1.0" encoding="UTF-8"?><svg id="a" xmlns="http://www.w3.org/2000/svg" viewBox="0 0 100 100"><defs><style>.b{fill:#424244;}</style></defs><path class="b" d="M64.82,47.35c-4.07-.9-7.48-2.17-7.89-6.71-.4-4.43,2.05-6.74,6.25-7.54,3.2-.61,1.43-3.2,1.71-4.88,.34-2.08-.32-4.8,2.97-4.65,2.9,.13,2.45,2.67,2.45,4.59,.03,11.65,0,23.3,0,34.96,0,8.22,.12,6.73,.14,9.56,.02,2.86-2.32,3.26-4.65,3.26-19.64,0-11.81,.48-31.45,.48-2.31,0-4.78-.4-4.81-3.15-.03-3.11,2.58-3.34,5.07-3.33,6.49,.04,12.99-.19,19.47,.11,3.61,.17,5.27-.62,4.82-4.57-.34-2.96,.04-5.99-.15-8.98-.28-4.48,.73-7.99,6.06-9.15Z"/></svg>