<?xml version="1.0" encoding="UTF-8"?><svg id="a" xmlns="http://www.w3.org/2000/svg" viewBox="0 0 100 100"><defs><style>.b{fill:#414143;}.c{fill:#48484a;}</style></defs><path class="b" d="M42.48,22.51c-2.96,3.42-1.94,6.92,.61,9.68,2.8,3.04,6.83,2.87,10.18,1.09,3.45-1.83,4.23-5.34,3.26-9.07-1-3.82-3.41-6.79-6.08-9.57-1.16-1.2-1.81-2.49-.57-3.94,1.14-1.33,2.49-1.34,4-.39,5.64,3.56,9.89,14.17,8,20.27-.34,1.1-.63,2.48-1.43,3.14-7.69,6.35-3.82,15.02-4.71,22.72-.33,2.85,2.12,3.5,3.83,4.63,7.02,4.65,7.03,5.5-.17,10.09-1.4,.89-2.81,1.77-4.21,2.66-1.87,1.18-3.83,1.68-5.23-.48-1.46-2.25,.08-3.69,1.84-4.89,1.08-.74,2.19-1.45,3.67-2.43-2.31-1.5-4.31-2.8-7.17-4.66,0,8.47,0,16.03,0,23.59,0,2.51,.34,5.53-3.32,5.48-3.36-.05-2.97-2.99-2.97-5.27,0-13.98-.02-27.96,.08-41.93,.02-2.78-.47-4.88-2.72-6.98-4.46-4.15-5.11-9.51-3.01-15.16,1.35-3.64,3.65-6.7,6.26-9.53,1.41-1.53,2.99-3.02,5.05-1.06,1.92,1.83,.37,3.17-.81,4.64-1.84,2.27-4.27,4.23-4.47,7.49l.11-.12Z"/><path class="c" d="M42.37,22.63c.88-.71,1.71-1.48,2.65-2.1,2.85-1.89,5.73-1.69,8.23,.51,2.51,2.21,3.02,5.08,1.5,8.1-1.56,3.09-4.31,4.09-7.53,3.37-3.08-.69-4.77-2.85-4.9-6.04-.06-1.32,.1-2.64,.16-3.96,0,0-.11,.12-.11,.12Z"/></svg>