<?xml version="1.0" encoding="UTF-8"?><svg id="a" xmlns="http://www.w3.org/2000/svg" viewBox="0 0 100 100"><defs><style>.b{fill:#414143;}</style></defs><path class="b" d="M45.96,42.08c-.73-1.61-1.94-1.01-2.81-1.28-3.24-1.02-5.09-3.17-5.09-6.55,0-3.16,1.69-5.74,4.72-6.23,3.14-.51,3.55-2,3.41-4.63-.12-2.21-.68-5.44,2.61-5.45,3.65-.02,2.87,3.37,2.88,5.74,.04,12.8,.13,25.61-.06,38.41-.05,3.13,1,4.82,3.78,6.09,4.97,2.28,9.8,4.89,14.69,7.35,1.92,.96,3.66,2.23,2.58,4.61-1.2,2.65-3.36,2.09-5.48,1.01-5.32-2.73-10.8-5.17-15.93-8.21-4.54-2.68-9.26-3.21-14.32-3.08-2.53,.07-3.7,.73-3.47,3.41,.16,1.81,.08,3.66-.03,5.48-.12,1.9-1.23,3.23-3.14,3.22-1.91,0-3.1-1.38-3.16-3.23-.13-3.99-.26-8,.06-11.96,.24-3.08,2.83-3.13,5.29-3.16,7.46-.11,7.46-.15,7.45-7.59,0-1.5,.11-3-.02-4.49-.41-4.71,.63-8.49,6.04-9.46Z"/></svg>