<?xml version="1.0" encoding="UTF-8"?><svg id="a" xmlns="http://www.w3.org/2000/svg" viewBox="0 0 100 100"><defs><style>.b{fill:#404042;}</style></defs><path class="b" d="M66.55,47.74c-2.76-.39-4.85-.05-6.07-1.66-3.06-4.03-6.25-2.84-9.46-.41-2.58,1.95-5.02,3.84-8.6,2.39-1.58-.64-2.21,1.07-3.15,1.94-4.43,4.11-6.07,9.85-8.79,14.96-1.13,2.12-2.22,4.6-5.16,3.2-3.05-1.45-1.47-3.85-.61-6.01,3.58-8.95,9.03-16.69,15.96-23.27,5.3-5.03,11.45-9.01,19.3-6.84,5.51,1.52,8.93,4.64,10.61,11.02,1.75,6.65,4.79,13,5.67,19.98,.26,2.06,.75,4.34-1.85,4.94-2.8,.65-3.02-1.86-3.53-3.76-.36-1.32,.06-3.18-2.43-2.76-3.84,.64-6.71-1.01-7.74-4.66-1.17-4.17,1.03-6.99,5.84-9.06Z"/></svg>