<?xml version="1.0" encoding="UTF-8"?><svg id="a" xmlns="http://www.w3.org/2000/svg" viewBox="0 0 100 100"><defs><style>.b{fill:#414143;}.c{fill:#424244;}</style></defs><path class="b" d="M38.9,47.71c-2.95-.15-5.84-.26-8.73-.45-1.95-.13-3.16-1.3-3.06-3.22,.1-1.94,1.47-2.88,3.4-2.84,2.82,.06,5.64,.24,8.47,.27,2.2,.02,4.66,.83,6.02-2.02,.25-.53,1.98-1,2.07-.87,2.31,3.48,8.68,2.44,9.02,7.98,.14,2.28,1.82,3.45,3.07,4.94,1.62,1.93,2.37,4,1.23,6.41-1.2,2.53-3.25,3.54-6.04,3.5-5.15-.08-10.3-.09-15.45,.02-3.76,.08-6.02-1.63-6.7-5.25-.7-3.77,1.04-6.03,4.72-6.9,.76-.18,1.65-.26,1.99-1.57Z"/><path class="c" d="M75.54,54.61c.12,3.63-2.84,6.71-6.52,6.79-3.64,.08-6.77-2.86-6.89-6.48-.12-3.59,2.86-6.65,6.56-6.75,3.74-.09,6.73,2.72,6.85,6.43Z"/></svg>